<?xml version="1.0" encoding="UTF-8"?><svg xmlns="http://www.w3.org/2000/svg" viewBox="0 0 1000 1000" x="0px" y="0px" width="1000px" height="1000px" version="1.1" xmlns:xlink="http://www.w3.org/1999/xlink"><g style="isolation:isolate"><g id="Layer_1" data-name="Layer 1"><g opacity="0.2" style="mix-blend-mode:multiply"><path d="M329.274,272.369v53h72v-53Zm62,34h-52v-24h52Z" fill="#2d2d2d" stroke="#2d2d2d" stroke-linecap="round" stroke-linejoin="round" stroke-width="6"/><line x1="365.274" y1="294.369" x2="365.274" y2="306.369" fill="#2d2d2d" stroke="#2d2d2d" stroke-linecap="round" stroke-linejoin="round" stroke-width="6"/><rect x="336.274" y="438.535" width="58" height="23.821" stroke-width="6" stroke="#2d2d2d" stroke-linecap="round" stroke-linejoin="round" fill="#2d2d2d"/><rect x="336.274" y="559.535" width="58" height="23.821" stroke-width="6" stroke="#2d2d2d" stroke-linecap="round" stroke-linejoin="round" fill="#2d2d2d"/><circle cx="365.274" cy="511.46" r="56.997" fill="#2d2d2d" stroke="#2d2d2d" stroke-linecap="round" stroke-linejoin="round" stroke-width="6"/><rect x="419.6" y="500.373" width="9.9" height="15.25" rx="4.23" stroke-width="6" stroke="#2d2d2d" stroke-linecap="round" stroke-linejoin="round" fill="#2d2d2d"/><rect x="344.274" y="325.469" width="42" height="121.399" stroke-width="6" stroke="#2d2d2d" stroke-linecap="round" stroke-linejoin="round" fill="#2d2d2d"/><path d="M343.774,577.457h43a0,0,0,0,1,0,0V737.369a21.5,21.5,0,0,1-21.5,21.5h0a21.5,21.5,0,0,1-21.5-21.5V577.457A0,0,0,0,1,343.774,577.457Z" fill="#2d2d2d" stroke="#2d2d2d" stroke-linecap="round" stroke-linejoin="round" stroke-width="6"/></g><g opacity="0.2" style="mix-blend-mode:multiply"><path d="M579.809,559.167l20.636-12.388a56.013,56.013,0,0,1,11.292-99.412l-22.92-13.442a78.363,78.363,0,0,0-9.008,125.242Z" fill="#2d2d2d" stroke="#2d2d2d" stroke-linecap="round" stroke-linejoin="round" stroke-width="6"/><path d="M705.33,654.944l-71.417-45.973L622.261,247.054a8.5,8.5,0,0,0-8.766-8.22l-4.775.154a8.5,8.5,0,0,0-8.219,8.766l12.018,373.31h0l-.013.021,81.037,52.165a8.5,8.5,0,0,0,11.743-2.545l2.586-4.017A8.5,8.5,0,0,0,705.33,654.944Z" fill="#2d2d2d" stroke="#2d2d2d" stroke-linecap="round" stroke-linejoin="round" stroke-width="6"/><path d="M727.471,351.08l-74.564,40.671L615.032,751.87a8.5,8.5,0,0,1-9.339,7.561l-4.751-.5a8.5,8.5,0,0,1-7.562-9.339l39.067-371.454h0l-.012-.022,84.607-46.149a8.5,8.5,0,0,1,11.528,3.39l2.288,4.195A8.5,8.5,0,0,1,727.471,351.08Z" fill="#2d2d2d" stroke="#2d2d2d" stroke-linecap="round" stroke-linejoin="round" stroke-width="6"/><circle cx="617.127" cy="356.814" r="99.773" fill="#2d2d2d" stroke="#2d2d2d" stroke-linecap="round" stroke-linejoin="round" stroke-width="6"/></g><path d="M684.916,647.715l-73.039-43.351L587.1,243.108a8.5,8.5,0,0,0-9.059-7.9l-4.766.327a8.5,8.5,0,0,0-7.9,9.059l25.559,372.627h0l-.013.022,82.876,49.19a8.5,8.5,0,0,0,11.644-2.97l2.439-4.109A8.5,8.5,0,0,0,684.916,647.715Z" fill="#823017"/><path d="M556,556.556l20.173-13.128a56.013,56.013,0,0,1,7.676-99.756l-23.393-12.6A78.363,78.363,0,0,0,556,556.556Z" fill="#9d401e"/><path d="M533.728,495.481a78.235,78.235,0,0,1,30.763-62.237l-4.034-2.174A78.363,78.363,0,0,0,556,556.556l3.961-2.578A78.173,78.173,0,0,1,533.728,495.481Z" fill="#9d401e" opacity="0.46" style="mix-blend-mode:screen"/><path d="M540.725,450.792a106.872,106.872,0,0,0,22.507,7.546,56.146,56.146,0,0,1,20.618-14.666l-23.393-12.6A78.9,78.9,0,0,0,540.725,450.792Z" fill="#823017"/><path d="M556,556.556l20.173-13.128a56.276,56.276,0,0,1-12.951-10.8,106.921,106.921,0,0,0-22.494,7.542A78.911,78.911,0,0,0,556,556.556Z" fill="#823017"/><path d="M556,559.556a3,3,0,0,1-1.882-.663,81.364,81.364,0,0,1,4.626-130.287,3,3,0,0,1,3.135-.177l23.393,12.6a3,3,0,0,1-.282,5.416,53.012,53.012,0,0,0-7.263,94.414,3,3,0,0,1,.084,5.081L557.638,559.07A2.993,2.993,0,0,1,556,559.556ZM560.678,434.6a75.357,75.357,0,0,0-4.463,118.24L570.7,543.41a59.018,59.018,0,0,1,6.5-99.913Z" fill="#2d2d2d"/><path d="M678.121,670.624a11.433,11.433,0,0,1-5.849-1.607L589.4,619.827a3,3,0,0,1-1.469-2.639L562.384,244.8a11.5,11.5,0,0,1,10.683-12.257l4.767-.327A11.5,11.5,0,0,1,590.091,242.9l24.671,359.685,71.685,42.548a11.5,11.5,0,0,1,4.019,15.755L688.027,665A11.5,11.5,0,0,1,678.121,670.624Zm-84.3-55.146,81.512,48.378a5.5,5.5,0,0,0,7.532-1.92l2.439-4.109a5.5,5.5,0,0,0-1.921-7.532h0l-73.039-43.352a3,3,0,0,1-1.462-2.375L584.1,243.313a5.494,5.494,0,0,0-5.86-5.107l-4.766.326a5.5,5.5,0,0,0-5.108,5.86Z" fill="#2d2d2d"/><path d="M696.013,343.247,622.975,386.6,598.2,747.854a8.5,8.5,0,0,1-9.058,7.895l-4.767-.327a8.5,8.5,0,0,1-7.895-9.058l25.559-372.628h0l-.013-.022,82.877-49.19a8.5,8.5,0,0,1,11.644,2.97l2.438,4.108A8.5,8.5,0,0,1,696.013,343.247Z" fill="#823017"/><path d="M589.735,758.77q-.4,0-.8-.028l-4.767-.327a11.5,11.5,0,0,1-10.684-12.256l25.554-372.537a3,3,0,0,1,1.458-2.487l82.877-49.19a11.511,11.511,0,0,1,15.755,4.018l2.438,4.109a11.5,11.5,0,0,1-4.018,15.755l-71.686,42.547L601.188,748.059a11.5,11.5,0,0,1-11.453,10.711Zm15.186-383.286L579.468,746.569a5.495,5.495,0,0,0,5.107,5.86l4.767.327a5.5,5.5,0,0,0,5.86-5.108l24.779-361.255a3,3,0,0,1,1.462-2.375l73.039-43.351a5.495,5.495,0,0,0,1.921-7.532l-2.438-4.109a5.5,5.5,0,0,0-7.532-1.922Zm91.093-32.237h0Z" fill="#2d2d2d"/><path d="M585.951,253.21a99.773,99.773,0,1,0,99.772,99.773A99.773,99.773,0,0,0,585.951,253.21Zm0,176.719A76.947,76.947,0,1,1,662.9,352.983,76.947,76.947,0,0,1,585.951,429.929Z" fill="#9d401e"/><g opacity="0.6" style="mix-blend-mode:screen"><path d="M494.178,352.983A99.769,99.769,0,0,1,589.951,253.3c-1.328-.053-2.66-.087-4-.087a99.773,99.773,0,1,0,0,199.545c1.34,0,2.672-.034,4-.086A99.77,99.77,0,0,1,494.178,352.983Z" fill="#9d401e"/><path d="M589.951,429.826q1.987.1,4,.1a76.947,76.947,0,0,0,0-153.893q-2.013,0-4,.1a76.947,76.947,0,0,1,0,153.686Z" fill="#9d401e"/></g><path d="M585.951,455.755A102.773,102.773,0,1,1,688.724,352.983,102.889,102.889,0,0,1,585.951,455.755Zm0-199.545a96.773,96.773,0,1,0,96.773,96.773A96.883,96.883,0,0,0,585.951,256.21Zm0,176.719A79.947,79.947,0,1,1,665.9,352.983,80.036,80.036,0,0,1,585.951,432.929Zm0-153.893A73.947,73.947,0,1,0,659.9,352.983,74.03,74.03,0,0,0,585.951,279.036Z" fill="#2d2d2d"/><path d="M585.951,455.755A102.773,102.773,0,1,1,688.724,352.983,102.889,102.889,0,0,1,585.951,455.755Zm0-199.545a96.773,96.773,0,1,0,96.773,96.773A96.883,96.883,0,0,0,585.951,256.21Z" fill="#2d2d2d"/><circle cx="585.951" cy="352.983" r="76.946" fill="#a4ecff" opacity="0.81"/><path d="M585.951,432.929A79.947,79.947,0,1,1,665.9,352.983,80.036,80.036,0,0,1,585.951,432.929Zm0-153.893A73.947,73.947,0,1,0,659.9,352.983,74.03,74.03,0,0,0,585.951,279.036Z" fill="#2d2d2d"/><path d="M585.951,538.206a99.773,99.773,0,1,0,99.772,99.773A99.773,99.773,0,0,0,585.951,538.206Zm0,176.719A76.946,76.946,0,1,1,662.9,637.979,76.947,76.947,0,0,1,585.951,714.925Z" fill="#9d401e"/><g opacity="0.6" style="mix-blend-mode:screen"><path d="M589.951,714.822q1.987.1,4,.1a76.946,76.946,0,1,0,0-153.892q-2.013,0-4,.1a76.947,76.947,0,0,1,0,153.686Z" fill="#9d401e"/><path d="M494.178,637.979a99.769,99.769,0,0,1,95.773-99.686c-1.328-.052-2.66-.087-4-.087a99.773,99.773,0,0,0,0,199.546c1.34,0,2.672-.035,4-.087A99.77,99.77,0,0,1,494.178,637.979Z" fill="#9d401e"/></g><path d="M585.951,740.752A102.773,102.773,0,1,1,688.724,637.979,102.89,102.89,0,0,1,585.951,740.752Zm0-199.546a96.773,96.773,0,1,0,96.773,96.773A96.883,96.883,0,0,0,585.951,541.206Zm0,176.719A79.947,79.947,0,1,1,665.9,637.979,80.036,80.036,0,0,1,585.951,717.925Zm0-153.893A73.947,73.947,0,1,0,659.9,637.979,74.03,74.03,0,0,0,585.951,564.032Z" fill="#2d2d2d"/><circle cx="585.951" cy="637.979" r="76.946" fill="#a4ecff" opacity="0.81"/><path d="M585.951,717.925A79.947,79.947,0,1,1,665.9,637.979,80.036,80.036,0,0,1,585.951,717.925Zm0-153.893A73.947,73.947,0,1,0,659.9,637.979,74.03,74.03,0,0,0,585.951,564.032Z" fill="#2d2d2d"/><g opacity="0.71"><path d="M546.661,353.769c-.14,18.736,3.31,32.521-3.189,32.4-6.212.121-19.965-13.665-19.826-32.4-.14-18.736,13.614-32.522,19.826-32.4C549.971,321.247,546.521,335.033,546.661,353.769Z" fill="#fff"/></g><g opacity="0.71"><path d="M551.8,637.979c-.14,18.736,3.31,32.521-3.188,32.4-6.212.121-19.967-13.665-19.826-32.4-.14-18.736,13.613-32.522,19.826-32.4C555.115,605.457,551.664,619.243,551.8,637.979Z" fill="#fff"/></g><path d="M410.77,518.623h-1.44a7.238,7.238,0,0,1-7.23-7.23V504.6a7.239,7.239,0,0,1,7.23-7.231h1.44A7.239,7.239,0,0,1,418,504.6v6.789A7.238,7.238,0,0,1,410.77,518.623Zm-1.44-15.25a1.232,1.232,0,0,0-1.23,1.231v6.789a1.232,1.232,0,0,0,1.23,1.23h1.44a1.232,1.232,0,0,0,1.23-1.23V504.6a1.232,1.232,0,0,0-1.23-1.231Z" fill="#2d2d2d"/><rect x="405.1" y="500.373" width="9.9" height="15.25" rx="4.23" fill="#2d2d2d"/><path d="M315.274,268.369v53h72v-53Zm62,34h-52v-24h52Z" fill="#fff"/><path d="M387.273,324.369h-72a3,3,0,0,1-3-3v-53a3,3,0,0,1,3-3h72a3,3,0,0,1,3,3v53A3,3,0,0,1,387.273,324.369Zm-69-6h66v-47h-66Zm59-13h-52a3,3,0,0,1-3-3v-24a3,3,0,0,1,3-3h52a3,3,0,0,1,3,3v24A3,3,0,0,1,377.273,305.369Zm-49-6h46v-18h-46Z" fill="#2d2d2d"/><path d="M351.273,305.369a3,3,0,0,1-3-3v-12a3,3,0,0,1,6,0v12A3,3,0,0,1,351.273,305.369Z" fill="#2d2d2d"/><rect x="322.274" y="434.535" width="58" height="23.821" fill="#e0e0e0"/><path d="M380.273,461.356h-58a3,3,0,0,1-3-3V434.535a3,3,0,0,1,3-3h58a3,3,0,0,1,3,3v23.821A3,3,0,0,1,380.273,461.356Zm-55-6h52V437.535h-52Z" fill="#2d2d2d"/><rect x="322.274" y="555.535" width="58" height="23.821" fill="#e0e0e0"/><path d="M380.273,582.356h-58a3,3,0,0,1-3-3V555.535a3,3,0,0,1,3-3h58a3,3,0,0,1,3,3v23.821A3,3,0,0,1,380.273,582.356Zm-55-6h52V558.535h-52Z" fill="#2d2d2d"/><circle cx="351.274" cy="507.46" r="56.997" fill="#fff"/><path d="M351.273,567.457a60,60,0,1,1,60-60A60.066,60.066,0,0,1,351.273,567.457Zm0-113.994a54,54,0,1,0,54,54A54.059,54.059,0,0,0,351.273,453.463Z" fill="#2d2d2d"/><circle cx="351.274" cy="507.46" r="44.997" fill="#42494f"/><path d="M351.273,555.457a48,48,0,1,1,48-48A48.052,48.052,0,0,1,351.273,555.457Zm0-89.994a42,42,0,1,0,42,42A42.045,42.045,0,0,0,351.273,465.463Z" fill="#2d2d2d"/><rect x="330.274" y="321.469" width="42" height="121.399" fill="#3c3a47"/><rect x="329.774" y="431.071" width="42.26" height="11.543" fill="#3c3a47" opacity="0.3" style="mix-blend-mode:overlay"/><rect x="329.774" y="317.698" width="42.26" height="11.543" fill="#3c3a47" opacity="0.3" style="mix-blend-mode:overlay"/><path d="M372.273,445.869h-42a3,3,0,0,1-3-3v-121.4a3,3,0,0,1,3-3h42a3,3,0,0,1,3,3v121.4A3,3,0,0,1,372.273,445.869Zm-39-6h36v-115.4h-36Z" fill="#2d2d2d"/><path d="M329.774,573.457h43a0,0,0,0,1,0,0V736.369a18.5,18.5,0,0,1-18.5,18.5h-3a21.5,21.5,0,0,1-21.5-21.5V573.457A0,0,0,0,1,329.774,573.457Z" fill="#3c3a47"/><rect x="329.774" y="573.457" width="42.26" height="11.543" fill="#3c3a47" opacity="0.3" style="mix-blend-mode:overlay"/><path d="M351.274,757.868c-14.425,0-24.5-8.841-24.5-21.5V573.457a3,3,0,0,1,3-3h43a3,3,0,0,1,3,3V736.368C375.773,749.027,365.7,757.868,351.274,757.868Zm-18.5-181.411V736.368c0,7.151,4.846,15.5,18.5,15.5h0c13.655,0,18.5-8.349,18.5-15.5V576.457Z" fill="#2d2d2d"/><polygon points="317.749 505.734 317.749 497.744 318.665 496.828 319.581 497.744 319.581 505.734 318.665 506.65 317.749 505.734" fill="#373e42"/><polygon points="328.435 505.734 328.435 497.744 329.351 496.828 330.267 497.744 330.267 505.734 329.351 506.65 328.435 505.734" fill="#373e42"/><polygon points="320.013 497.313 319.097 496.397 320.013 495.481 328.003 495.481 328.919 496.397 328.003 497.313 320.013 497.313" fill="#373e42"/><polygon points="320.013 507.998 319.097 507.082 320.013 506.166 328.003 506.166 328.919 507.082 328.003 507.998 320.013 507.998" fill="#373e42"/><polygon points="317.749 516.42 317.749 508.43 318.665 507.514 319.581 508.43 319.581 516.42 318.665 517.336 317.749 516.42" fill="#373e42"/><polygon points="328.435 516.42 328.435 508.43 329.351 507.514 330.267 508.43 330.267 516.42 329.351 517.336 328.435 516.42" fill="#373e42"/><polygon points="320.013 518.683 319.097 517.767 320.013 516.852 328.003 516.852 328.919 517.767 328.003 518.683 320.013 518.683" fill="#373e42"/><polygon points="333.456 505.734 333.456 497.744 334.371 496.828 335.287 497.744 335.287 505.734 334.371 506.65 333.456 505.734" fill="#373e42"/><polygon points="344.141 505.734 344.141 497.744 345.057 496.828 345.973 497.744 345.973 505.734 345.057 506.65 344.141 505.734" fill="#76d676"/><polygon points="335.719 497.313 334.803 496.397 335.719 495.481 343.709 495.481 344.625 496.397 343.709 497.313 335.719 497.313" fill="#373e42"/><polygon points="335.719 507.998 334.803 507.082 335.719 506.166 343.709 506.166 344.625 507.082 343.709 507.998 335.719 507.998" fill="#373e42"/><polygon points="333.456 516.42 333.456 508.43 334.371 507.514 335.287 508.43 335.287 516.42 334.371 517.336 333.456 516.42" fill="#373e42"/><polygon points="344.141 516.42 344.141 508.43 345.057 507.514 345.973 508.43 345.973 516.42 345.057 517.336 344.141 516.42" fill="#76d676"/><polygon points="335.719 518.683 334.803 517.767 335.719 516.852 343.709 516.852 344.625 517.767 343.709 518.683 335.719 518.683" fill="#373e42"/><polygon points="354.98 505.734 354.98 497.744 355.896 496.828 356.812 497.744 356.812 505.734 355.896 506.65 354.98 505.734" fill="#76d676"/><polygon points="365.665 505.734 365.665 497.744 366.581 496.828 367.497 497.744 367.497 505.734 366.581 506.65 365.665 505.734" fill="#76d676"/><polygon points="357.244 497.313 356.328 496.397 357.244 495.481 365.234 495.481 366.15 496.397 365.234 497.313 357.244 497.313" fill="#76d676"/><polygon points="357.244 507.998 356.328 507.082 357.244 506.166 365.234 506.166 366.15 507.082 365.234 507.998 357.244 507.998" fill="#373e42"/><polygon points="354.98 516.42 354.98 508.43 355.896 507.514 356.812 508.43 356.812 516.42 355.896 517.336 354.98 516.42" fill="#76d676"/><polygon points="365.665 516.42 365.665 508.43 366.581 507.514 367.497 508.43 367.497 516.42 366.581 517.336 365.665 516.42" fill="#76d676"/><polygon points="357.244 518.683 356.328 517.767 357.244 516.852 365.234 516.852 366.15 517.767 365.234 518.683 357.244 518.683" fill="#76d676"/><polygon points="370.686 505.734 370.686 497.744 371.602 496.828 372.518 497.744 372.518 505.734 371.602 506.65 370.686 505.734" fill="#76d676"/><polygon points="381.372 505.734 381.372 497.744 382.288 496.828 383.203 497.744 383.203 505.734 382.288 506.65 381.372 505.734" fill="#76d676"/><polygon points="372.95 497.313 372.034 496.397 372.95 495.481 380.94 495.481 381.856 496.397 380.94 497.313 372.95 497.313" fill="#76d676"/><polygon points="372.95 507.998 372.034 507.082 372.95 506.166 380.94 506.166 381.856 507.082 380.94 507.998 372.95 507.998" fill="#76d676"/><polygon points="370.686 516.42 370.686 508.43 371.602 507.514 372.518 508.43 372.518 516.42 371.602 517.336 370.686 516.42" fill="#76d676"/><polygon points="381.372 516.42 381.372 508.43 382.288 507.514 383.203 508.43 383.203 516.42 382.288 517.336 381.372 516.42" fill="#76d676"/><polygon points="372.95 518.683 372.034 517.767 372.95 516.852 380.94 516.852 381.856 517.767 380.94 518.683 372.95 518.683" fill="#76d676"/><rect x="349.442" y="502.681" width="1.832" height="1.832" fill="#76d676"/><rect x="349.442" y="509.681" width="1.832" height="1.832" fill="#76d676"/><path d="M351.44,309.4a5.506,5.506,0,0,1-5.5-5.5v-.333a5.5,5.5,0,0,1,11,0v.333A5.506,5.506,0,0,1,351.44,309.4Zm-.471-5.666a.527.527,0,0,0,.943,0A.527.527,0,0,0,350.969,303.739Z" fill="#2d2d2d"/><ellipse cx="351.274" cy="628.488" rx="5.899" ry="5.958" fill="#fff"/><ellipse cx="351.274" cy="628.488" rx="5.899" ry="5.958" fill="#d59729" stroke="#2d2d2d" stroke-linecap="round" stroke-linejoin="round" stroke-width="6"/><ellipse cx="351.274" cy="654.173" rx="5.899" ry="5.958" fill="#d59729"/><path d="M351.273,663.131a8.958,8.958,0,1,1,8.9-8.958A8.939,8.939,0,0,1,351.273,663.131Zm0-11.916a2.959,2.959,0,1,0,2.9,2.958A2.932,2.932,0,0,0,351.273,651.215Z" fill="#2d2d2d"/><ellipse cx="351.274" cy="677.769" rx="5.899" ry="5.958" fill="#d59729"/><path d="M351.273,686.728a8.959,8.959,0,1,1,8.9-8.958A8.939,8.939,0,0,1,351.273,686.728Zm0-11.917a2.959,2.959,0,1,0,2.9,2.959A2.932,2.932,0,0,0,351.273,674.811Z" fill="#2d2d2d"/><g opacity="0.15"><path d="M323.711,508c-.109,14.658,3.839,25.443.3,25.348-3.318.1-12.829-10.691-12.72-25.348-.109-14.657,9.4-25.443,12.72-25.348C327.55,482.555,323.6,493.34,323.711,508Z" fill="#fff"/></g></g></g></svg>